<svg width="22" height="23" viewBox="0 0 22 23" fill="none" xmlns="http://www.w3.org/2000/svg">
<path d="M21.7008 19.5204L17.4165 15.2368C17.2231 15.0435 16.961 14.9361 16.686 14.9361H15.9855C17.1716 13.4194 17.8763 11.5118 17.8763 9.43663C17.8763 4.5 13.8756 0.5 8.93815 0.5C4.00068 0.5 0 4.5 0 9.43663C0 14.3733 4.00068 18.3733 8.93815 18.3733C11.0137 18.3733 12.9216 17.6686 14.4386 16.4828V17.1831C14.4386 17.4581 14.546 17.7202 14.7394 17.9135L19.0237 22.1971C19.4276 22.601 20.0808 22.601 20.4804 22.1971L21.6965 20.9812C22.1004 20.5773 22.1004 19.9243 21.7008 19.5204ZM8.93815 14.9361C5.90004 14.9361 3.43775 12.4785 3.43775 9.43663C3.43775 6.39903 5.89574 3.93716 8.93815 3.93716C11.9763 3.93716 14.4386 6.39474 14.4386 9.43663C14.4386 12.4742 11.9806 14.9361 8.93815 14.9361Z" fill="#7C80FC"/>
</svg>
