<svg width="39" height="25" viewBox="0 0 39 25" fill="none" xmlns="http://www.w3.org/2000/svg">
<path d="M37.9292 6.26779L21.0184 1.0722C20.0968 0.789083 19.1026 0.789083 18.1817 1.0722L1.27029 6.26779C-0.156828 6.70611 -0.156828 8.59337 1.27029 9.03169L4.2185 9.93743C3.57162 10.7371 3.17392 11.7125 3.13452 12.7808C2.55069 13.1154 2.13966 13.7192 2.13966 14.4401C2.13966 15.0936 2.48401 15.6435 2.97992 15.9951L1.43216 22.9597C1.29757 23.5654 1.75832 24.1401 2.37852 24.1401H5.7802C6.401 24.1401 6.86176 23.5654 6.72717 22.9597L5.17941 15.9951C5.67532 15.6435 6.01967 15.0936 6.01967 14.4401C6.01967 13.7386 5.62743 13.1518 5.07028 12.8111C5.11635 11.9005 5.58196 11.0954 6.32462 10.5849L18.1811 14.2279C18.7304 14.3964 19.784 14.6068 21.0177 14.2279L37.9292 9.0323C39.3569 8.59337 39.3569 6.70671 37.9292 6.26779ZM21.5876 16.0824C19.858 16.6135 18.3842 16.3201 17.6112 16.0824L8.81934 13.3816L7.95968 20.2601C7.95968 22.4032 13.171 24.1401 19.5997 24.1401C26.0284 24.1401 31.2398 22.4032 31.2398 20.2601L30.3801 13.3809L21.5876 16.0824Z" fill="#7C80FC"/>
</svg>
