<svg width="40" height="35" viewBox="0 0 40 35" fill="none" xmlns="http://www.w3.org/2000/svg">
<path d="M24.5754 23.571C24.5754 24.2418 24.032 24.7852 23.3612 24.7852H16.076C15.4052 24.7852 14.8618 24.2418 14.8618 23.571V19.9284H0.291504V30.8561C0.291504 32.7988 1.99138 34.4987 3.93409 34.4987H35.5031C37.4458 34.4987 39.1457 32.7988 39.1457 30.8561V19.9284H24.5754V23.571ZM35.5031 7.78645H29.4322V4.14386C29.4322 2.20115 27.7323 0.501282 25.7896 0.501282H13.6476C11.7049 0.501282 10.0051 2.20115 10.0051 4.14386V7.78645H3.93409C1.99138 7.78645 0.291504 9.48632 0.291504 11.429V17.5H39.1457V11.429C39.1457 9.48632 37.4458 7.78645 35.5031 7.78645ZM24.5754 7.78645H14.8618V5.35806H24.5754V7.78645Z" fill="#7C80FC"/>
</svg>
