<svg width="39" height="39" viewBox="0 0 39 39" fill="none" xmlns="http://www.w3.org/2000/svg">
<path d="M19.5729 0.0729065C8.84095 0.0729065 0.145752 8.7681 0.145752 19.5C0.145752 30.2319 8.84095 38.9271 19.5729 38.9271C30.3048 38.9271 39 30.2319 39 19.5C39 8.7681 30.3048 0.0729065 19.5729 0.0729065ZM19.5729 7.59308C23.3799 7.59308 26.4663 10.6795 26.4663 14.4866C26.4663 18.2937 23.3799 21.3801 19.5729 21.3801C15.7658 21.3801 12.6794 18.2937 12.6794 14.4866C12.6794 10.6795 15.7658 7.59308 19.5729 7.59308ZM19.5729 34.5404C14.9746 34.5404 10.8542 32.4566 8.09677 29.1979C9.56947 26.4248 12.4522 24.5135 15.8128 24.5135C16.0008 24.5135 16.1888 24.5448 16.369 24.5996C17.3873 24.9286 18.4527 25.1401 19.5729 25.1401C20.6931 25.1401 21.7662 24.9286 22.7768 24.5996C22.9569 24.5448 23.1449 24.5135 23.3329 24.5135C26.6935 24.5135 29.5763 26.4248 31.049 29.1979C28.2916 32.4566 24.1711 34.5404 19.5729 34.5404Z" fill="#7C80FC"/>
</svg>
