<svg width="45" height="37" viewBox="0 0 45 37" fill="none" xmlns="http://www.w3.org/2000/svg">
<path d="M37.1267 31.9974H7.88228C7.26365 31.9974 6.7575 32.5036 6.7575 33.1222V35.3718C6.7575 35.9904 7.26365 36.4966 7.88228 36.4966H37.1267C37.7453 36.4966 38.2515 35.9904 38.2515 35.3718V33.1222C38.2515 32.5036 37.7453 31.9974 37.1267 31.9974ZM41.6258 9.50172C39.7629 9.50172 38.2515 11.0132 38.2515 12.8761C38.2515 13.3752 38.3639 13.8392 38.5608 14.268L33.4711 17.319C32.3885 17.9657 30.9896 17.6002 30.3639 16.5035L24.6345 6.47887C25.3867 5.86023 25.8788 4.93229 25.8788 3.8778C25.8788 2.01488 24.3674 0.503448 22.5045 0.503448C20.6416 0.503448 19.1301 2.01488 19.1301 3.8778C19.1301 4.93229 19.6222 5.86023 20.3744 6.47887L14.645 16.5035C14.0194 17.6002 12.6134 17.9657 11.5378 17.319L6.45521 14.268C6.64502 13.8462 6.76453 13.3752 6.76453 12.8761C6.76453 11.0132 5.2531 9.50172 3.39017 9.50172C1.52725 9.50172 0.00878906 11.0132 0.00878906 12.8761C0.00878906 14.739 1.52022 16.2504 3.38314 16.2504C3.56592 16.2504 3.7487 16.2223 3.92445 16.1942L9.00706 29.7478H36.0019L41.0845 16.1942C41.2603 16.2223 41.443 16.2504 41.6258 16.2504C43.4887 16.2504 45.0002 14.739 45.0002 12.8761C45.0002 11.0132 43.4887 9.50172 41.6258 9.50172Z" fill="#7C80FC"/>
</svg>
